<svg width="220" height="200" viewBox="0 0 220 200" fill="none" xmlns="http://www.w3.org/2000/svg">
<mask id="mask0_2632_1127" style="mask-type:alpha" maskUnits="userSpaceOnUse" x="0" y="0" width="220" height="200">
<rect width="220" height="200" fill="#D9D9D9"/>
</mask>
<g mask="url(#mask0_2632_1127)">
<path d="M94.5 38.44C94.3533 38.44 94.2733 38.3733 94.26 38.24C94.2467 38.1333 94.2267 37.94 94.2 37.66C94.1867 37.3667 94.1733 37.0533 94.16 36.72C94.1467 36.3733 94.14 36.0733 94.14 35.82V23.56C94.14 23.1467 94.12 22.8267 94.08 22.6C94.0533 22.3733 93.9667 22.1867 93.82 22.04C93.6867 21.88 93.4467 21.7133 93.1 21.54C92.9933 21.4733 92.94 21.4067 92.94 21.34C92.94 21.2733 92.9867 21.1867 93.08 21.08C93.1733 20.96 93.2733 20.9 93.38 20.9C93.54 20.9 93.74 20.94 93.98 21.02C94.22 21.1 94.4533 21.1933 94.68 21.3C94.9067 21.3933 95.0733 21.48 95.18 21.56C95.34 21.68 95.4133 21.8133 95.4 21.96C95.36 22.24 95.3267 22.5 95.3 22.74C95.2867 22.98 95.28 23.26 95.28 23.58V29.04C95.9867 29.04 96.6067 28.9867 97.14 28.88C97.6867 28.76 98.0667 28.6667 98.28 28.6C98.4267 28.5467 98.5333 28.54 98.6 28.58C98.6667 28.62 98.7267 28.68 98.78 28.76C98.8467 28.8533 98.9133 28.9933 98.98 29.18C99.06 29.3667 99.1 29.5067 99.1 29.6C99.1 29.68 99.0533 29.7533 98.96 29.82C98.88 29.8867 98.82 29.92 98.78 29.92C98.2867 29.8533 97.7733 29.82 97.24 29.82C96.72 29.8067 96.1933 29.8 95.66 29.8C95.5933 29.8 95.5267 29.8 95.46 29.8C95.4067 29.8 95.3467 29.8 95.28 29.8V35.78C95.28 35.9933 95.2667 36.2533 95.24 36.56C95.2267 36.8533 95.1933 37.1467 95.14 37.44C95.0867 37.72 95.0067 37.9533 94.9 38.14C94.8067 38.34 94.6733 38.44 94.5 38.44ZM84.48 33.34C84.2 33.3533 83.9667 33.22 83.78 32.94C83.6067 32.6467 83.52 32.3067 83.52 31.92V26.32C83.52 26.0933 83.5133 25.8667 83.5 25.64C83.5 25.4 83.4733 25.1667 83.42 24.94C83.3667 24.7533 83.26 24.56 83.1 24.36C82.94 24.16 82.78 24.0067 82.62 23.9C82.5 23.7933 82.48 23.6733 82.56 23.54C82.7333 23.3133 82.9267 23.2267 83.14 23.28C83.3267 23.32 83.5667 23.42 83.86 23.58C84.1533 23.74 84.3867 23.8867 84.56 24.02C84.7467 24.18 84.8267 24.32 84.8 24.44C84.7733 24.6267 84.7467 24.9 84.72 25.26C84.6933 25.6067 84.68 25.9133 84.68 26.18V31.66C84.68 31.8333 84.7133 31.9667 84.78 32.06C84.86 32.14 85.0333 32.1733 85.3 32.16C86.0333 32.1467 86.7867 32.0733 87.56 31.94C88.3333 31.8067 89.0733 31.6467 89.78 31.46C90.5 31.2733 91.12 31.0933 91.64 30.92C92.1733 30.7333 92.5533 30.5867 92.78 30.48C93.02 30.3733 93.16 30.4133 93.2 30.6C93.2533 30.7733 93.1733 30.94 92.96 31.1C92.7867 31.2067 92.4667 31.3533 92 31.54C91.5467 31.7267 91 31.9267 90.36 32.14C89.7333 32.34 89.0667 32.5333 88.36 32.72C87.6533 32.8933 86.96 33.04 86.28 33.16C85.6133 33.28 85.0133 33.34 84.48 33.34ZM104.118 29.9C103.358 29.9133 102.658 29.78 102.018 29.5C101.378 29.2067 100.865 28.7933 100.478 28.26C100.092 27.7133 99.8984 27.08 99.8984 26.36C99.8984 25.6667 100.092 25.0467 100.478 24.5C100.865 23.9533 101.378 23.5133 102.018 23.18C102.658 22.8467 103.365 22.6733 104.138 22.66C104.912 22.6333 105.618 22.76 106.258 23.04C106.898 23.32 107.412 23.7267 107.798 24.26C108.185 24.7933 108.378 25.44 108.378 26.2C108.378 26.8933 108.178 27.52 107.778 28.08C107.392 28.6267 106.878 29.06 106.238 29.38C105.598 29.7 104.892 29.8733 104.118 29.9ZM104.138 29.04C104.992 29.0133 105.705 28.7467 106.278 28.24C106.865 27.7333 107.158 27.0533 107.158 26.2C107.158 25.2667 106.865 24.58 106.278 24.14C105.705 23.7 104.985 23.4933 104.118 23.52C103.252 23.5733 102.518 23.8467 101.918 24.34C101.332 24.8333 101.038 25.5 101.038 26.34C101.038 27.22 101.338 27.9 101.938 28.38C102.538 28.8467 103.272 29.0667 104.138 29.04ZM111.898 38.44C111.752 38.44 111.672 38.3733 111.658 38.24C111.645 38.1333 111.625 37.94 111.598 37.66C111.585 37.3667 111.572 37.0533 111.558 36.72C111.545 36.3733 111.538 36.0733 111.538 35.82V23.56C111.538 23.1467 111.518 22.8267 111.478 22.6C111.452 22.3733 111.365 22.1867 111.218 22.04C111.085 21.88 110.845 21.7133 110.498 21.54C110.392 21.4733 110.338 21.4067 110.338 21.34C110.338 21.2733 110.385 21.1867 110.478 21.08C110.572 20.96 110.672 20.9 110.778 20.9C110.938 20.9 111.138 20.94 111.378 21.02C111.618 21.1 111.852 21.1933 112.078 21.3C112.305 21.3933 112.472 21.48 112.578 21.56C112.738 21.68 112.812 21.8133 112.798 21.96C112.758 22.24 112.725 22.5 112.698 22.74C112.685 22.98 112.678 23.26 112.678 23.58V35.78C112.678 35.9933 112.665 36.2533 112.638 36.56C112.625 36.8533 112.592 37.1467 112.538 37.44C112.485 37.72 112.405 37.9533 112.298 38.14C112.205 38.34 112.072 38.44 111.898 38.44ZM99.7784 34.46C99.6718 34.46 99.5718 34.44 99.4784 34.4C99.3984 34.36 99.2984 34.3 99.1784 34.22C99.0184 34.1133 98.8384 33.9867 98.6384 33.84C98.4384 33.6933 98.3251 33.5733 98.2984 33.48C98.2851 33.4133 98.3051 33.3267 98.3584 33.22C98.4251 33.1133 98.5051 33.06 98.5984 33.06C98.9451 33.1133 99.2851 33.1533 99.6184 33.18C99.9518 33.1933 100.285 33.2 100.618 33.2C101.085 33.2 101.652 33.18 102.318 33.14C102.998 33.0867 103.725 33.0133 104.498 32.92C105.272 32.8267 106.038 32.7267 106.798 32.62C107.572 32.5 108.292 32.38 108.958 32.26C109.625 32.1267 110.185 31.9933 110.638 31.86C110.718 31.8333 110.798 31.8333 110.878 31.86C110.958 31.8733 110.998 31.9333 110.998 32.04C110.998 32.12 110.958 32.2133 110.878 32.32C110.798 32.4133 110.692 32.4933 110.558 32.56C110.398 32.6267 110.078 32.72 109.598 32.84C109.132 32.9467 108.565 33.0667 107.898 33.2C107.232 33.3333 106.518 33.46 105.758 33.58C104.998 33.7 104.252 33.8 103.518 33.88C102.905 33.9467 102.312 34.0133 101.738 34.08C101.178 34.1467 100.718 34.2333 100.358 34.34C100.105 34.42 99.9118 34.46 99.7784 34.46ZM119.847 33.32C119.687 33.4267 119.527 33.4667 119.367 33.44C119.221 33.4 119.127 33.3267 119.087 33.22C119.047 33.1 119.114 32.98 119.287 32.86C119.967 32.3933 120.601 31.8733 121.187 31.3C121.774 30.7133 122.287 30.12 122.727 29.52C123.167 28.92 123.521 28.36 123.787 27.84C124.067 27.32 124.241 26.88 124.307 26.52C124.334 26.36 124.321 26.2333 124.267 26.14C124.214 26.0333 124.054 25.9533 123.787 25.9C123.574 25.9 123.281 25.9133 122.907 25.94C122.547 25.9667 122.194 26 121.847 26.04C121.501 26.08 121.234 26.1267 121.047 26.18C120.807 26.2333 120.634 26.2533 120.527 26.24C120.434 26.2133 120.334 26.1467 120.227 26.04C119.961 25.7733 119.774 25.5467 119.667 25.36C119.627 25.2933 119.641 25.2133 119.707 25.12C119.787 25.0133 119.874 24.9667 119.967 24.98C120.354 25.0467 120.787 25.0933 121.267 25.12C121.761 25.1467 122.261 25.1533 122.767 25.14C123.274 25.1267 123.734 25.1067 124.147 25.08C124.867 25.0533 125.601 24.9933 126.347 24.9C127.094 24.8067 127.727 24.6933 128.247 24.56C128.394 24.52 128.501 24.52 128.567 24.56C128.634 24.5867 128.694 24.6333 128.747 24.7C128.801 24.7933 128.854 24.92 128.907 25.08C128.974 25.24 129.007 25.3667 129.007 25.46C129.007 25.54 128.961 25.6133 128.867 25.68C128.787 25.7467 128.727 25.78 128.687 25.78C128.234 25.74 127.667 25.7267 126.987 25.74C126.321 25.7533 125.567 25.7867 124.727 25.84C124.967 25.9067 125.167 26.0133 125.327 26.16C125.501 26.2933 125.581 26.4267 125.567 26.56C125.541 27.0533 125.227 27.7467 124.627 28.64C125.387 29.2 126.087 29.66 126.727 30.02C127.381 30.38 127.921 30.64 128.347 30.8C128.534 30.9067 128.694 31.1 128.827 31.38C128.961 31.6467 129.021 31.9133 129.007 32.18C128.981 32.3267 128.874 32.4533 128.687 32.56C128.501 32.6667 128.394 32.6933 128.367 32.64C128.141 32.3467 127.847 32.04 127.487 31.72C127.127 31.4 126.747 31.0867 126.347 30.78C125.947 30.46 125.561 30.1667 125.187 29.9C124.827 29.62 124.514 29.3867 124.247 29.2C123.701 29.96 123.034 30.72 122.247 31.48C121.474 32.24 120.674 32.8533 119.847 33.32ZM131.767 34.74C131.647 34.74 131.574 34.6733 131.547 34.54C131.521 34.4067 131.494 34.1933 131.467 33.9C131.454 33.6067 131.447 33.3067 131.447 33C131.447 32.6933 131.447 32.4533 131.447 32.28V23.5C131.447 23.1 131.427 22.7867 131.387 22.56C131.361 22.3333 131.281 22.14 131.147 21.98C131.014 21.82 130.787 21.6467 130.467 21.46C130.321 21.3533 130.287 21.2333 130.367 21.1C130.487 20.9 130.641 20.8 130.827 20.8C131.027 20.8 131.294 20.8733 131.627 21.02C131.974 21.1667 132.254 21.3067 132.467 21.44C132.627 21.5333 132.701 21.66 132.687 21.82C132.647 22.0467 132.621 22.2733 132.607 22.5C132.594 22.7267 132.587 22.98 132.587 23.26V32.14C132.587 32.3267 132.574 32.5667 132.547 32.86C132.534 33.14 132.501 33.4267 132.447 33.72C132.394 34.0133 132.314 34.26 132.207 34.46C132.101 34.6467 131.954 34.74 131.767 34.74ZM125.887 39.04C125.221 39.04 124.727 38.8733 124.407 38.54C124.087 38.2067 123.927 37.7333 123.927 37.12V35.96C123.927 35.56 123.887 35.2467 123.807 35.02C123.727 34.7933 123.514 34.6067 123.167 34.46C123.087 34.4333 123.034 34.38 123.007 34.3C122.994 34.22 122.994 34.1467 123.007 34.08C123.101 33.8133 123.274 33.7 123.527 33.74C123.741 33.7667 123.981 33.84 124.247 33.96C124.514 34.0667 124.747 34.18 124.947 34.3C125.121 34.4067 125.194 34.5133 125.167 34.62C125.154 34.7133 125.134 34.88 125.107 35.12C125.081 35.3467 125.067 35.5667 125.067 35.78V37.02C125.067 37.4867 125.147 37.8 125.307 37.96C125.481 38.1067 125.707 38.1933 125.987 38.22C126.134 38.2333 126.381 38.24 126.727 38.24C127.087 38.24 127.481 38.2333 127.907 38.22C128.347 38.2067 128.767 38.1933 129.167 38.18C129.581 38.1667 129.914 38.1533 130.167 38.14C130.861 38.1 131.447 38.0333 131.927 37.94C132.421 37.8467 132.781 37.7667 133.007 37.7C133.301 37.6067 133.507 37.6467 133.627 37.82C133.694 37.9267 133.767 38.0533 133.847 38.2C133.927 38.3467 133.974 38.4667 133.987 38.56C134.001 38.6533 133.954 38.74 133.847 38.82C133.754 38.9133 133.681 38.96 133.627 38.96C133.161 38.9333 132.761 38.9133 132.427 38.9C132.094 38.9 131.741 38.9 131.367 38.9C130.994 38.9133 130.514 38.9333 129.927 38.96C129.247 38.9867 128.567 39.0067 127.887 39.02C127.207 39.0333 126.541 39.04 125.887 39.04ZM123.647 23.28C123.434 23.2533 123.161 23.2067 122.827 23.14C122.507 23.06 122.207 22.96 121.927 22.84C121.647 22.72 121.454 22.6 121.347 22.48C121.281 22.4 121.274 22.28 121.327 22.12C121.381 21.96 121.474 21.8933 121.607 21.92C122.247 22.0533 122.901 22.14 123.567 22.18C124.234 22.2067 124.861 22.2067 125.447 22.18C126.034 22.1533 126.507 22.1267 126.867 22.1C126.961 22.0867 127.047 22.1267 127.127 22.22C127.207 22.3 127.254 22.3667 127.267 22.42C127.281 22.5267 127.234 22.6533 127.127 22.8C127.021 22.9333 126.907 23.02 126.787 23.06C126.641 23.1267 126.387 23.1867 126.027 23.24C125.667 23.28 125.274 23.3067 124.847 23.32C124.421 23.32 124.021 23.3067 123.647 23.28ZM143.13 38.56C143.023 38.6 142.943 38.5933 142.89 38.54C142.85 38.5 142.823 38.4533 142.81 38.4C142.783 38.2933 142.757 38.1 142.73 37.82C142.703 37.5267 142.683 37.2067 142.67 36.86C142.67 36.5133 142.67 36.2067 142.67 35.94V30.4C141.937 30.4267 141.223 30.4533 140.53 30.48C139.85 30.4933 139.23 30.5133 138.67 30.54C138.083 30.5667 137.57 30.6133 137.13 30.68C136.69 30.7333 136.27 30.8 135.87 30.88C135.643 30.9333 135.483 30.9533 135.39 30.94C135.31 30.9133 135.203 30.8533 135.07 30.76C134.99 30.7067 134.883 30.6267 134.75 30.52C134.617 30.4 134.497 30.28 134.39 30.16C134.283 30.04 134.223 29.96 134.21 29.92C134.17 29.8533 134.19 29.76 134.27 29.64C134.363 29.52 134.45 29.4733 134.53 29.5C134.957 29.5933 135.43 29.66 135.95 29.7C136.483 29.7267 137.103 29.7333 137.81 29.72C139.103 29.72 140.477 29.7067 141.93 29.68C143.397 29.6533 144.863 29.6133 146.33 29.56C146.917 29.5333 147.483 29.5 148.03 29.46C148.59 29.4067 149.083 29.3467 149.51 29.28C149.937 29.2133 150.243 29.1467 150.43 29.08C150.683 29.0133 150.877 29.08 151.01 29.28C151.09 29.3867 151.17 29.52 151.25 29.68C151.343 29.8267 151.39 29.9533 151.39 30.06C151.39 30.1533 151.343 30.2333 151.25 30.3C151.157 30.3667 151.083 30.4 151.03 30.4C150.497 30.36 149.877 30.34 149.17 30.34C148.463 30.3267 147.81 30.32 147.21 30.32C147.117 30.32 147.023 30.32 146.93 30.32C146.837 30.32 146.75 30.32 146.67 30.32L143.81 30.38V35.9C143.81 36.18 143.79 36.5133 143.75 36.9C143.71 37.2867 143.637 37.64 143.53 37.96C143.437 38.28 143.303 38.48 143.13 38.56ZM146.05 28.52C145.97 28.4933 145.93 28.4133 145.93 28.28C145.93 28.1467 145.943 28.0133 145.97 27.88C146.05 27.4933 146.157 27.02 146.29 26.46C146.423 25.8867 146.55 25.3067 146.67 24.72C146.79 24.1333 146.863 23.64 146.89 23.24C146.903 23.1333 146.877 23.0733 146.81 23.06C146.757 23.0467 146.717 23.04 146.69 23.04C146.677 23.04 146.67 23.04 146.67 23.04C146.51 23.04 146.243 23.0467 145.87 23.06C145.497 23.0733 145.09 23.0933 144.65 23.12C144.223 23.1333 143.823 23.1533 143.45 23.18C143.077 23.1933 142.81 23.2067 142.65 23.22C142.263 23.2333 141.83 23.2533 141.35 23.28C140.883 23.3067 140.43 23.34 139.99 23.38C139.563 23.42 139.217 23.4667 138.95 23.52C138.697 23.5867 138.523 23.6067 138.43 23.58C138.35 23.54 138.263 23.4733 138.17 23.38C138.157 23.3667 138.143 23.3533 138.13 23.34C137.997 23.22 137.877 23.0933 137.77 22.96C137.677 22.8267 137.61 22.7267 137.57 22.66C137.53 22.5933 137.543 22.5067 137.61 22.4C137.677 22.2933 137.75 22.2533 137.83 22.28C138.03 22.3467 138.317 22.4 138.69 22.44C139.077 22.4667 139.497 22.48 139.95 22.48C140.417 22.48 140.87 22.48 141.31 22.48C141.75 22.4667 142.13 22.4533 142.45 22.44C142.743 22.4267 143.097 22.4133 143.51 22.4C143.937 22.3733 144.37 22.3467 144.81 22.32C145.263 22.2933 145.677 22.2533 146.05 22.2C146.423 22.1467 146.71 22.08 146.91 22C147.003 21.9867 147.11 21.9867 147.23 22L148.43 22.44C148.483 22.4667 148.523 22.5133 148.55 22.58C148.577 22.6333 148.57 22.7067 148.53 22.8C148.517 22.84 148.457 22.9667 148.35 23.18C148.257 23.3933 148.197 23.5733 148.17 23.72C148.13 23.8667 148.057 24.1067 147.95 24.44C147.857 24.7733 147.743 25.14 147.61 25.54C147.49 25.9267 147.37 26.3 147.25 26.66C147.143 27.02 147.057 27.3 146.99 27.5C146.857 27.8867 146.703 28.1667 146.53 28.34C146.37 28.5 146.21 28.56 146.05 28.52Z" fill="#F3504D"/>
<line x1="173" y1="29.3" x2="203" y2="29.3" stroke="#F3504D" stroke-width="0.4"/>
<ellipse cx="108" cy="81.5" rx="27" ry="24.5" fill="#F3504D"/>
<path d="M98 90C101.137 93.7731 109.529 99.0555 118 90" stroke="white"/>
<circle cx="100" cy="76" r="2" fill="white"/>
<circle cx="116" cy="76" r="2" fill="white"/>
<ellipse cx="153" cy="81.5" rx="27" ry="24.5" fill="#4B78FF"/>
<path d="M143 90C146.137 93.7731 154.529 99.0555 163 90" stroke="white"/>
<circle cx="145" cy="76" r="2" fill="white"/>
<circle cx="161" cy="76" r="2" fill="white"/>
</g>
</svg>
